<?xml version="1.0" encoding="UTF-8"?>
<svg id="Ebene_1" data-name="Ebene 1" xmlns="http://www.w3.org/2000/svg" viewBox="0 0 647.76 137.13">
  <defs>
    <style>
      .cls-1 {
        fill: #004CB2;
      }
    </style>
  </defs>
  <path class="cls-1" d="M344.71,1.32c-13.89-.96-26.67-1.15-37.64-.74-14.81-.74-27.79-.72-39.86-.23-6.04.2-11.84.58-17.54.94-5.69.44-11.29.83-16.88,1.37-22.39,2.04-44.93,4.65-75.23,7.42-26.9,2.89-49.78,6.09-72.37,9.48-5.65.88-11.28,1.75-16.96,2.64l-1.07.17-.72.12c-.29.03-.57.13-.85.2l-2.23.64c-1.42.42-2.84.85-4.25,1.3-2.82.9-5.64,1.85-8.47,2.86-5.65,2.03-11.34,4.3-17.08,6.97-5.74,2.68-11.56,5.73-17.31,9.69-1.55,1.75-4.08,4.04-7.03,7.32-1.47,1.65-3.05,3.54-4.56,5.84-1.49,2.29-2.93,4.99-3.83,8.2-.87,3.19-1.16,6.89-.39,10.49.7,3.62,2.3,7.01,4.32,10.03,2.02,3.03,4.46,5.74,7.1,8.22,2.66,2.51,5.47,4.66,8.34,6.88,11.58,8.71,25.2,15.51,38.22,20.27,13.04,4.79,25.5,7.52,35.19,8.77,12.9,2.27,22.98,2.79,27.3,2.69,2.17-.05,2.9-.26,1.87-.61-1.03-.35-3.83-.82-8.71-1.58,8.89,1.03,15.01,1.52,19.63,1.92,4.63.38,7.77.64,10.74.83.75.04,1.48.08,2.23.12l.56.02c.17,0,.26.02.45.03.37.03.75.06,1.14.09,1.54.11,3.2.22,5.14.31,3.88.18,8.9.32,16.35.37l-10.08,1.04c9.8.62,20.64,1.72,33.52,1.72l14.55-1.06c8.85.6,16.75.75,24.23.84,7.47.08,14.51.01,21.65-.16,7.14-.15,14.37-.31,22.22-.39,7.85-.12,16.32-.14,25.94.07-12.54-.47-9.67-.68-4.02-.91,5.65-.2,14.09-.57,12.68-1.09,2.93.24,10.19.36,15.74.49,5.54.12,9.36.2,5.4.48,32.58-.07,62.48-3.44,81.08-2.24l11.9-1.14c10.17-.89,19.31-1.31,28.25-1.66,2.24-.08,4.46-.17,6.69-.25l3.29-.13c.23-.02.47.02.71.03l.84.06,1.68.11c4.48.29,9,.54,13.7.71l2.61-.71c6.2-.09,14.99-.07,23.58-.02,8.59.05,16.98.13,22.39.36,16.33-.15,34.71-1.24,53.1-3.57,9.19-1.18,18.38-2.65,27.25-4.63,8.84-2.01,17.46-4.41,24.99-8.04,3.8-1.62,6.74-3.4,8.82-5.29,2.08-1.88,3.3-3.84,3.79-5.59.48-1.75.5-3.22.2-4.43-.06-.3-.13-.59-.19-.87-.08-.27-.2-.53-.3-.79-.22-.5-.36-.99-.65-1.42-.25-.4-.56-.96-.87-1.51-.21-.56-.37-1.31-.53-1.82-.29-1.14-.76-2.39-1.26-3.94-.3-.76-.62-1.59-.98-2.52-.44-.9-.81-1.92-1.39-2.99-1.05-2.18-2.56-4.69-4.72-7.54-.62-.95-1.4-1.86-2.16-2.84-.83-.92-1.65-1.91-2.61-2.83-1.85-1.9-4-3.72-6.33-5.45-2.32-1.74-4.84-3.36-7.46-4.85-2.61-1.51-5.32-2.87-8.03-4.1-10.86-4.97-21.63-7.85-27.09-9.8,6.41,1.58,11.39,3,15.7,4.28,4.3,1.3,7.92,2.49,11.53,3.88,3.6,1.4,7.2,2.97,11.26,5.34,4.04,2.38,8.64,5.52,13.37,10.71-1.73-2.05-.46-1.04,1.99,1.58,2.41,2.63,5.69,7.17,7.65,11.91.24.59.48,1.18.72,1.75.22.58.4,1.16.59,1.72.41,1.12.67,2.21.93,3.19.29.98.42,1.89.59,2.64.08.34.14.64.2.91.1.26.24.46.33.64.19.34.35.6.41.63.07.05.03-.17-.08-.53-.05-.17-.12-.39-.21-.67-.08-.27-.07-.65-.12-1.03-.05-.49-.12-1.05-.19-1.69-.09-.64-.24-1.35-.39-2.15-1.78-6.44-5.12-12.6-9.7-17.76-4.55-5.2-10.11-9.55-16.15-13.16-6.04-3.61-12.53-6.57-19.2-9.02-6.67-2.48-13.54-4.47-20.45-6.14-13.84-3.33-27.86-5.34-41.42-6.52-13.58-1.15-26.7-1.52-38.91-.99-2.42-.27-4.78-.54-7.09-.8,1.99-.76-13.23-3.27-31.66-5.96-9.24-1.14-19.3-2.11-28.4-3.06-4.55-.45-8.85-.92-12.71-1.25-3.86-.26-7.26-.48-9.98-.66l-1.35-.66c-4.67-.43-9.04-.83-13.42-1.24-2.19-.19-4.39-.38-6.64-.57-2.25-.18-4.54-.4-6.92-.48-4.77-.22-9.88-.42-15.66-.62-2.89-.09-5.95-.19-9.22-.29-1.63-.05-3.32-.09-5.06-.14-.87-.02-1.76-.04-2.66-.06-.9,0-1.82,0-2.75.01-35.64-.96-70.77.24-100.86.96-2.77.1-5.58.2-8.41.3-1.41.06-2.83.12-4.26.19-1.42.1-2.85.21-4.27.31-5.71.43-11.47.92-17.19,1.45-11.42,1.26-22.7,2.68-33.11,4.49-20.84,3.47-38.32,7.81-47.33,10.72,3.3-.67,6.6-1.31,9.9-1.89,1.65-.3,3.29-.6,4.93-.89,1.64-.27,3.29-.55,4.92-.82,6.53-1.15,13.04-2.09,19.45-3.11,6.42-.96,12.78-1.79,19.03-2.7,6.27-.75,12.45-1.49,18.52-2.22,6.08-.68,12.07-1.15,17.93-1.68,2.93-.24,5.83-.53,8.7-.68,2.88-.14,5.72-.28,8.53-.42,5.62-.24,11.1-.46,16.43-.51,5.34.04,10.53.17,15.54.4-18.72.27-28.68,1.21-37.55,1.97-4.44.36-8.58.97-13.41,1.6-2.41.32-4.99.66-7.86,1.05-2.87.38-6.03.76-9.57,1.33l3.78-.26,3.79-.17,7.57-.34c-4.08.52-8.16.99-12.23,1.55,6.32.02-9.79,2.47-7.83,3,3.7-.4,7.38-.89,11.09-1.21l11.12-1c3.71-.31,7.41-.7,11.12-.96l11.14-.72c-23.96.89-8.26-.94-1.31-2.16l11.53-.6c1.92-.12,3.84-.17,5.77-.21l5.77-.15c-5.38-.18-19.62.14-2.84-1.01,9.28-.16,21.62-1.24,31.93-.68l-9.17.88c-3.05.31-6.1.74-9.15,1.1,1.76-.13,3.49-.26,5.19-.38,1.71-.12,3.39-.2,5.06-.22,3.33-.07,6.58-.09,9.78-.08,6.4.04,12.57.18,18.75.38,6.18.34,12.35.69,18.74.9,6.39.23,13,.2,20.06.32l8.49,2.06,13.27.58c2.21.11,4.42.16,6.63.32l6.62.49-3.03.34,31.72,2.74c17.13,1.63,19.76,1.16,22.85.93,3.3.34,6.57.69,9.71,1.01,3.13.34,6.14.58,8.87,1.01,5.48.77,9.97,1.45,12.61,2.01l-15.39-1.22,14.04,2.35c-9.59-1.72,11.82,1.09,15.35,1.21,5.35.81,9.6,1.46,11.6,1.77.78-.01,1.54-.02,2.26-.03.53,0,1.03,0,1.52,0,.98,0,1.89.01,2.73.02,1.69.04,3.12.07,4.36.09,2.49.08,4.25.17,5.96.28,3.41.24,6.59.51,14.83,1.45,10.19.41,21.43,1.89,30.15,3.44,8.74,1.52,14.98,3.02,15.69,2.5,8.88,2.29,17.71,5.11,26,8.78,4.14,1.84,8.15,3.88,11.88,6.18,3.72,2.32,7.17,4.89,10.19,7.73,2.98,2.86,5.53,5.97,7.43,9.32,1.87,3.36,3.24,6.89,3.86,10.63l.35,2.16.14.86c.09.28.22.53.33.8l.35.8.24.58.2.41c.02.12.04.23.08.34.06.22.17.46.14.59.08.69.04.81-.23,1.4-.29.56-1.02,1.49-2.25,2.4-1.2.91-2.65,1.85-4.34,2.65-.9.57-1.96,1.06-2.96,1.59-1.07.47-2.1,1-3.23,1.44l-1.67.69-1.72.64c-1.14.44-2.33.82-3.5,1.22-9.81,2.38-18.78,3.62-27.03,4.72-8.28,1.06-15.95,1.85-23.71,2.55-15.51,1.35-31.35,2.4-53.45,2.7l3.48-.42c-8.06.44-16.13.79-24.21,1.05-8.33-.28-15.39-.46-21.9-.6-1.62-.03-3.21-.07-4.78-.1-.78-.02-1.56-.03-2.33-.05l-1.29-.04c-.32-.01-.63-.03-.98.01l-.8.07c-3.06.26-6.06.51-9.11.76-12.24.97-25.2,1.84-44.63,2.06-20.91.55-36.08,1.14-47.72,1.92-11.64.82-19.75,1.67-26.53,2.69-10.15.6-21.62.59-32.83.5-11.21-.19-22.16-.37-31.28-.53,3.97-.17,7.93-.39,11.9-.61-5.06-.2-10.11-.44-15.17-.7-13.12.07-20.03.03-27.93-.11-3.95-.06-8.15-.11-13.5-.12-5.35,0-11.85-.01-20.4-.02-11.7-.45-20.03-.56-26.26-.57-6.23-.02-10.36.16-13.65.43-3.29.26-5.75.61-8.62.91-1.44.15-2.98.29-4.79.41-.9.05-1.87.1-2.93.15-.26.01-.53.02-.81.03-.22,0-.71.02-.96.04-.56.03-1.14.07-1.75.11-14.75-.7-29.49-2.73-43.9-5.71l.9.52c-6.52-.61-11.03-1.24-15.05-1.98-4.03-.74-7.57-1.6-12.16-2.88-4.57-1.36-10.2-3.1-18.15-6.26-7.89-3.23-18.33-7.66-30.96-16.44l1.67,2.53c-2.03-1.65-4.01-3.04-5.73-4.54-.89-.72-1.75-1.42-2.59-2.11-.84-.69-1.6-1.39-2.39-2.06-3.03-2.76-5.69-5.5-7.83-8.76-2.1-3.23-3.7-7.13-3.27-11.75.25-2.29.99-4.72,2.34-7.12,1.35-2.4,3.22-4.79,5.61-7.09,2.29-2.29,6.23-5.35,11.4-8.36,5.16-3.02,11.5-6.03,18.3-8.75,6.8-2.72,14.05-5.21,20.98-7.32.87-.26,1.73-.51,2.58-.77.47-.13.74-.23,1.09-.28.44-.08.87-.15,1.3-.22,1.74-.31,3.45-.61,5.12-.9,3.33-.6,6.47-1.19,9.34-1.79,23.72-2.9,41.23-5.63,57.92-8.23,16.69-2.57,32.58-5.01,53.02-6.66,24.6-1.28,42.03-4.08,46.83-2.47l-4.43.24,9.23,1.38,1.04-1.37c7.4-.09,16.41-.42,25.17-.47,4.38-.07,8.69.02,12.7.14,4.01.1,7.71.39,10.87.77,5.72-.41,11.45-.63,17.18-.89,2.87-.13,5.73-.16,8.61-.24,2.87-.08,5.75-.15,8.62-.13-8.44-.35-17.77-.74-27.16-1.13l.94.39c-2.23-.07-5.27-.02-8.73-.03-1.73,0-3.56,0-5.45,0-1.89.02-3.84.04-5.8.07-7.84.04-15.86.23-21.03.09l12.4-.73c-14.28.03-2.39-.88,1.61-1.16,14.33.12,19.54.1,23.91-.17,2.19-.12,4.16-.21,6.96-.3,2.8-.07,6.42-.17,11.9.04,2.46.21,6.04.39,8.56.69,2.52.28,3.99.51,2.24.59,3.22.17,7.77.42,12.78.99,2.5.27,5.13.49,7.76.84,2.63.35,5.27.7,7.83,1.03,1.28.15,2.53.34,3.74.55,1.21.19,2.39.38,3.52.56,2.26.38,4.33.61,6.09.95,3.52.62,5.87.91,6.22.65,1.09.3,1.5.42,2.48.69-.94-.78-2.51-1.69-4.65-2.72-2.14-1.02-4.83-2.21-8.02-3.25-3.18-1.08-6.84-2.31-10.88-3.32-2.03-.52-4.14-1.07-6.33-1.63-2.2-.52-4.48-.99-6.83-1.49Z"/>
</svg>