<?xml version="1.0" encoding="UTF-8"?>
<svg id="Layer_12" data-name="Layer 12" xmlns="http://www.w3.org/2000/svg" viewBox="0 0 2075.94 393.27">
  <defs>
    <style>
      .cls-1 {
        fill: #e1e1e1;
      }
    </style>
  </defs>
  <polygon class="cls-1" points="376.07 0 256.8 0 200.22 157.59 143.64 0 0 0 141.18 393.27 259.26 393.27 316.46 233.95 373.66 393.27 491.74 393.27 632.92 0 489.37 0 432.7 157.74 376.07 0"/>
  <polygon class="cls-1" points="1238.19 0 1097.01 393.27 978.93 393.27 837.75 0 981.39 0 1037.97 157.59 1094.59 0 1238.19 0"/>
  <polygon class="cls-1" points="1662.18 0 1624.15 105.92 1384.2 105.92 1365.7 157.47 1605.64 157.47 1577.24 236.61 1337.29 236.61 1319.01 287.5 1558.97 287.5 1521 393.27 1139.48 393.27 1280.66 0 1662.18 0"/>
  <polygon class="cls-1" points="1782.73 287.5 1972.73 287.5 1934.76 393.27 1563.47 393.27 1601.44 287.5 1805.44 105.92 1662.49 105.92 1700.51 0 2075.94 0 1782.73 287.5"/>
  <polygon class="cls-1" points="936.93 393.27 795.75 0 677.67 0 536.49 393.27 680.13 393.27 736.71 235.68 793.33 393.27 936.93 393.27"/>
</svg>